<svg width="62" height="62" viewBox="0 0 62 62" fill="none" xmlns="http://www.w3.org/2000/svg">
<g clip-path="url(#clip0_16_47)">
<path d="M1.90608 13.4849L37.2714 33.905C37.7646 34.1831 38.5485 34.1831 39.029 33.905L60.1192 21.6529C60.5997 21.3747 60.5997 20.9195 60.1192 20.6287L24.7412 0.208627C24.2607 -0.0695422 23.4642 -0.0695422 22.9837 0.208627L1.89344 12.4607C1.41297 12.7389 1.41297 13.2067 1.90608 13.4849ZM10.9086 11.0825C10.7063 10.9687 10.504 10.8675 10.2764 10.779L20.1008 5.06393C20.2526 5.19037 20.4169 5.31681 20.6193 5.43061C22.4147 6.46742 25.3228 6.46742 27.1183 5.43061C27.3206 5.31681 27.4976 5.19037 27.6493 5.05129L51.5592 18.8586C51.2431 18.9724 50.9396 19.0988 50.6741 19.2632C48.8913 20.3 48.8913 21.9816 50.6994 23.0311C50.9776 23.1955 51.281 23.3219 51.6098 23.4357L41.6842 29.2014C41.4945 29.0117 41.2543 28.8347 40.9761 28.683C39.1807 27.6462 36.2726 27.6462 34.4771 28.683C34.338 28.7588 34.2242 28.8474 34.1104 28.9359L10.2764 15.1539C10.504 15.0654 10.719 14.9642 10.9339 14.8378C12.7167 13.801 12.7041 12.1193 10.9086 11.0825ZM39.4083 22.8035L40.9635 21.8931C41.2037 21.7541 41.5957 21.7541 41.8359 21.8931L44.567 23.4736C44.8073 23.6127 44.8073 23.8403 44.567 23.9794L43.0118 24.8898C42.7716 25.0289 42.3796 25.0289 42.1394 24.8898L39.4083 23.3093C39.168 23.1702 39.168 22.9426 39.4083 22.8035ZM17.4582 10.1342L19.0135 9.22382C19.2537 9.08473 19.6457 9.08473 19.8859 9.22382L22.617 10.8043C22.8572 10.9434 22.8572 11.171 22.617 11.3101L21.0618 12.2205C20.8216 12.3595 20.4296 12.3595 20.1894 12.2205L17.4582 10.64C17.218 10.5009 17.218 10.2733 17.4582 10.1342ZM57.7295 26.9128L60.4859 28.506L38.3841 41.3397L37.6634 40.9224L35.6277 39.7465L1.51412 20.0345L4.24523 18.4413L38.3588 38.1534L57.7295 26.9128ZM35.6657 46.6628L1.51412 26.9128L4.24523 25.3323L38.3968 45.0823L57.6915 33.867L60.4353 35.4475L38.422 48.2433L37.714 47.826L35.6657 46.6628ZM57.7295 40.6569L60.4859 42.25L38.3841 55.0837L37.6634 54.6665L35.6277 53.4906L1.51412 33.7912L4.24523 32.198L38.3588 51.9101L57.7295 40.6569ZM35.6657 60.4069L1.51412 40.6569L4.24523 39.0764L38.3968 58.8264L57.6915 47.6111L60.4353 49.1916L38.422 62L37.714 61.5827L35.6657 60.4069ZM23.9573 21.1345C27.839 23.3725 34.1357 23.3725 38.0174 21.1219C41.8865 18.8712 41.8865 15.2297 38.0048 12.9791C34.1104 10.7285 27.8137 10.7411 23.9446 12.9917C20.0629 15.2424 20.0629 18.8839 23.9573 21.1345ZM25.9297 15.2044L26.4734 14.8883C26.6125 14.8125 26.8275 14.8125 26.9666 14.8883L27.6367 15.2803C27.7884 15.1918 27.9275 15.1033 28.0792 15.0274L27.4091 14.6355C27.27 14.5596 27.27 14.4332 27.4091 14.3573L27.9528 14.0412C28.0919 13.9653 28.3068 13.9653 28.4459 14.0412L29.2931 14.5343L29.4069 14.4964C30.3678 14.2056 31.3793 14.0791 32.4541 14.155C33.3012 14.2182 34.0599 14.4205 34.7553 14.7113C35.0334 14.8251 35.2863 14.9516 35.5139 15.078C36.1208 15.432 36.576 15.8366 36.9427 16.3045L37.0186 16.4309C37.0944 16.6079 37.0059 16.7217 36.7151 16.785C36.4116 16.8608 36.1082 16.9367 35.8047 16.9999C35.5898 17.0505 35.4381 17.0378 35.3116 16.962C35.2737 16.9367 35.2484 16.924 35.2105 16.8987C35.0082 16.7091 34.8185 16.5068 34.6035 16.3171C34.4139 16.1401 34.1989 15.9884 33.9587 15.8493C33.6426 15.6596 33.2633 15.5079 32.8207 15.4068C32.1633 15.2424 31.5058 15.2803 30.8609 15.432L30.8356 15.4447L32.492 16.393C32.6311 16.4688 32.6311 16.5953 32.492 16.6712L31.9483 16.9873C31.8092 17.0631 31.5943 17.0631 31.4552 16.9873L29.5586 15.8999C29.4195 15.9884 29.2678 16.0642 29.116 16.1527L31.0126 17.2401C31.1517 17.316 31.1517 17.4424 31.0126 17.5183L30.469 17.8344C30.3299 17.9103 30.1149 17.9103 29.9758 17.8344L28.2436 16.8355C27.8643 17.3034 27.7378 17.7712 28.1677 18.2517C28.3574 18.454 28.5976 18.631 28.8632 18.7953C29.1034 18.9344 29.3689 19.0609 29.6597 19.1747C29.9758 19.2885 30.3172 19.4023 30.6586 19.5161C30.7092 19.5413 30.7598 19.554 30.7977 19.5793C30.9241 19.6551 30.9494 19.7437 30.8736 19.8701C30.7598 20.0598 30.6333 20.2368 30.4942 20.4138C30.3804 20.5782 30.1655 20.6287 29.8747 20.5782C29.5712 20.5149 29.2804 20.4264 28.9896 20.3379C28.4585 20.1609 27.9781 19.9586 27.5608 19.7184C27.1183 19.4655 26.7516 19.1747 26.4608 18.8459C25.7654 18.062 25.778 17.2528 26.347 16.4436C26.4608 16.2792 26.6125 16.1401 26.7516 15.9884L25.9424 15.5205C25.7907 15.4068 25.7907 15.2803 25.9297 15.2044Z" fill="black"/>
</g>
<defs>
<clipPath id="clip0_16_47">
<rect width="62" height="62" fill="white"/>
</clipPath>
</defs>
</svg>
