<svg width="113" height="17" viewBox="0 0 113 17" fill="none" xmlns="http://www.w3.org/2000/svg">
<path d="M4.49219 8.39844H1.82031V13H0.3125V1.625H4.07812C5.35938 1.625 6.34375 1.91667 7.03125 2.5C7.72396 3.08333 8.07031 3.93229 8.07031 5.04688C8.07031 5.75521 7.8776 6.3724 7.49219 6.89844C7.11198 7.42448 6.58073 7.81771 5.89844 8.07812L8.57031 12.9062V13H6.96094L4.49219 8.39844ZM1.82031 7.17188H4.125C4.86979 7.17188 5.46094 6.97917 5.89844 6.59375C6.34115 6.20833 6.5625 5.69271 6.5625 5.04688C6.5625 4.34375 6.35156 3.80469 5.92969 3.42969C5.51302 3.05469 4.90885 2.86458 4.11719 2.85938H1.82031V7.17188ZM11.5234 13H10.0781V4.54688H11.5234V13ZM9.96094 2.30469C9.96094 2.07031 10.0312 1.8724 10.1719 1.71094C10.3177 1.54948 10.5312 1.46875 10.8125 1.46875C11.0938 1.46875 11.3073 1.54948 11.4531 1.71094C11.599 1.8724 11.6719 2.07031 11.6719 2.30469C11.6719 2.53906 11.599 2.73438 11.4531 2.89062C11.3073 3.04688 11.0938 3.125 10.8125 3.125C10.5312 3.125 10.3177 3.04688 10.1719 2.89062C10.0312 2.73438 9.96094 2.53906 9.96094 2.30469ZM14.5547 13V5.66406H13.2188V4.54688H14.5547V3.67969C14.5547 2.77344 14.7969 2.07292 15.2812 1.57812C15.7656 1.08333 16.4505 0.835938 17.3359 0.835938C17.6693 0.835938 18 0.880208 18.3281 0.96875L18.25 2.14062C18.0052 2.09375 17.7448 2.07031 17.4688 2.07031C17 2.07031 16.638 2.20833 16.3828 2.48438C16.1276 2.75521 16 3.14583 16 3.65625V4.54688H17.8047V5.66406H16V13H14.5547ZM24.625 13C24.5417 12.8333 24.474 12.5365 24.4219 12.1094C23.75 12.8073 22.9479 13.1562 22.0156 13.1562C21.1823 13.1562 20.4974 12.9219 19.9609 12.4531C19.4297 11.9792 19.1641 11.3802 19.1641 10.6562C19.1641 9.77604 19.4974 9.09375 20.1641 8.60938C20.8359 8.11979 21.7786 7.875 22.9922 7.875H24.3984V7.21094C24.3984 6.70573 24.2474 6.30469 23.9453 6.00781C23.6432 5.70573 23.1979 5.55469 22.6094 5.55469C22.0938 5.55469 21.6615 5.6849 21.3125 5.94531C20.9635 6.20573 20.7891 6.52083 20.7891 6.89062H19.3359C19.3359 6.46875 19.4844 6.0625 19.7812 5.67188C20.0833 5.27604 20.4896 4.96354 21 4.73438C21.5156 4.50521 22.0807 4.39062 22.6953 4.39062C23.6693 4.39062 24.4323 4.63542 24.9844 5.125C25.5365 5.60938 25.8229 6.27865 25.8438 7.13281V11.0234C25.8438 11.7995 25.9427 12.4167 26.1406 12.875V13H24.625ZM22.2266 11.8984C22.6797 11.8984 23.1094 11.7812 23.5156 11.5469C23.9219 11.3125 24.2161 11.0078 24.3984 10.6328V8.89844H23.2656C21.4948 8.89844 20.6094 9.41667 20.6094 10.4531C20.6094 10.9062 20.7604 11.2604 21.0625 11.5156C21.3646 11.7708 21.7526 11.8984 22.2266 11.8984ZM33.0312 10.7578C33.0312 10.3672 32.8828 10.0651 32.5859 9.85156C32.2943 9.63281 31.7812 9.44531 31.0469 9.28906C30.3177 9.13281 29.737 8.94531 29.3047 8.72656C28.8776 8.50781 28.5599 8.2474 28.3516 7.94531C28.1484 7.64323 28.0469 7.28385 28.0469 6.86719C28.0469 6.17448 28.3385 5.58854 28.9219 5.10938C29.5104 4.63021 30.2604 4.39062 31.1719 4.39062C32.1302 4.39062 32.9062 4.63802 33.5 5.13281C34.099 5.6276 34.3984 6.26042 34.3984 7.03125H32.9453C32.9453 6.63542 32.776 6.29427 32.4375 6.00781C32.1042 5.72135 31.6823 5.57812 31.1719 5.57812C30.6458 5.57812 30.2344 5.69271 29.9375 5.92188C29.6406 6.15104 29.4922 6.45052 29.4922 6.82031C29.4922 7.16927 29.6302 7.43229 29.9062 7.60938C30.1823 7.78646 30.6797 7.95573 31.3984 8.11719C32.1224 8.27865 32.7083 8.47135 33.1562 8.69531C33.6042 8.91927 33.9349 9.1901 34.1484 9.50781C34.3672 9.82031 34.4766 10.2031 34.4766 10.6562C34.4766 11.4115 34.1745 12.0182 33.5703 12.4766C32.9661 12.9297 32.1823 13.1562 31.2188 13.1562C30.5417 13.1562 29.9427 13.0365 29.4219 12.7969C28.901 12.5573 28.4922 12.224 28.1953 11.7969C27.9036 11.3646 27.7578 10.8984 27.7578 10.3984H29.2031C29.2292 10.8828 29.4219 11.2682 29.7812 11.5547C30.1458 11.8359 30.625 11.9766 31.2188 11.9766C31.7656 11.9766 32.2031 11.8672 32.5312 11.6484C32.8646 11.4245 33.0312 11.1276 33.0312 10.7578Z" fill="white"/>
<path d="M41.8984 13H40.4531V4.54688H41.8984V13ZM40.3359 2.30469C40.3359 2.07031 40.4062 1.8724 40.5469 1.71094C40.6927 1.54948 40.9062 1.46875 41.1875 1.46875C41.4688 1.46875 41.6823 1.54948 41.8281 1.71094C41.974 1.8724 42.0469 2.07031 42.0469 2.30469C42.0469 2.53906 41.974 2.73438 41.8281 2.89062C41.6823 3.04688 41.4688 3.125 41.1875 3.125C40.9062 3.125 40.6927 3.04688 40.5469 2.89062C40.4062 2.73438 40.3359 2.53906 40.3359 2.30469ZM45.5859 4.54688L45.6328 5.60938C46.2786 4.79688 47.1224 4.39062 48.1641 4.39062C49.9505 4.39062 50.8516 5.39844 50.8672 7.41406V13H49.4219V7.40625C49.4167 6.79688 49.276 6.34635 49 6.05469C48.7292 5.76302 48.3047 5.61719 47.7266 5.61719C47.2578 5.61719 46.8464 5.74219 46.4922 5.99219C46.138 6.24219 45.862 6.57031 45.6641 6.97656V13H44.2188V4.54688H45.5859ZM55.0078 2.5V4.54688H56.5859V5.66406H55.0078V10.9062C55.0078 11.2448 55.0781 11.5 55.2188 11.6719C55.3594 11.8385 55.599 11.9219 55.9375 11.9219C56.1042 11.9219 56.3333 11.8906 56.625 11.8281V13C56.2448 13.1042 55.875 13.1562 55.5156 13.1562C54.8698 13.1562 54.3828 12.9609 54.0547 12.5703C53.7266 12.1797 53.5625 11.625 53.5625 10.9062V5.66406H52.0234V4.54688H53.5625V2.5H55.0078ZM61.7891 13.1562C60.6432 13.1562 59.7109 12.7812 58.9922 12.0312C58.2734 11.276 57.9141 10.2682 57.9141 9.00781V8.74219C57.9141 7.90365 58.0729 7.15625 58.3906 6.5C58.7135 5.83854 59.1615 5.32292 59.7344 4.95312C60.3125 4.57812 60.9375 4.39062 61.6094 4.39062C62.7083 4.39062 63.5625 4.7526 64.1719 5.47656C64.7812 6.20052 65.0859 7.23698 65.0859 8.58594V9.1875H59.3594C59.3802 10.0208 59.6224 10.6953 60.0859 11.2109C60.5547 11.7214 61.1484 11.9766 61.8672 11.9766C62.3776 11.9766 62.8099 11.8724 63.1641 11.6641C63.5182 11.4557 63.8281 11.1797 64.0938 10.8359L64.9766 11.5234C64.2682 12.612 63.2057 13.1562 61.7891 13.1562ZM61.6094 5.57812C61.026 5.57812 60.5365 5.79167 60.1406 6.21875C59.7448 6.64062 59.5 7.23438 59.4062 8H63.6406V7.89062C63.599 7.15625 63.401 6.58854 63.0469 6.1875C62.6927 5.78125 62.2135 5.57812 61.6094 5.57812ZM68.3359 13H66.8906V1H68.3359V13ZM72.2266 13H70.7812V4.54688H72.2266V13ZM70.6641 2.30469C70.6641 2.07031 70.7344 1.8724 70.875 1.71094C71.0208 1.54948 71.2344 1.46875 71.5156 1.46875C71.7969 1.46875 72.0104 1.54948 72.1562 1.71094C72.3021 1.8724 72.375 2.07031 72.375 2.30469C72.375 2.53906 72.3021 2.73438 72.1562 2.89062C72.0104 3.04688 71.7969 3.125 71.5156 3.125C71.2344 3.125 71.0208 3.04688 70.875 2.89062C70.7344 2.73438 70.6641 2.53906 70.6641 2.30469ZM74.2031 8.70312C74.2031 7.38542 74.5078 6.33854 75.1172 5.5625C75.7266 4.78125 76.5339 4.39062 77.5391 4.39062C78.5703 4.39062 79.375 4.75521 79.9531 5.48438L80.0234 4.54688H81.3438V12.7969C81.3438 13.8906 81.0182 14.7526 80.3672 15.3828C79.7214 16.013 78.8516 16.3281 77.7578 16.3281C77.1484 16.3281 76.5521 16.1979 75.9688 15.9375C75.3854 15.6771 74.9401 15.3203 74.6328 14.8672L75.3828 14C76.0026 14.7656 76.7604 15.1484 77.6562 15.1484C78.3594 15.1484 78.9062 14.9505 79.2969 14.5547C79.6927 14.1589 79.8906 13.6016 79.8906 12.8828V12.1562C79.3125 12.8229 78.5234 13.1562 77.5234 13.1562C76.5339 13.1562 75.7318 12.7578 75.1172 11.9609C74.5078 11.1641 74.2031 10.0781 74.2031 8.70312ZM75.6562 8.86719C75.6562 9.82031 75.8516 10.5703 76.2422 11.1172C76.6328 11.6589 77.1797 11.9297 77.8828 11.9297C78.7943 11.9297 79.4635 11.5156 79.8906 10.6875V6.82812C79.4479 6.02083 78.7839 5.61719 77.8984 5.61719C77.1953 5.61719 76.6458 5.89062 76.25 6.4375C75.8542 6.98438 75.6562 7.79427 75.6562 8.86719ZM87.0391 13.1562C85.8932 13.1562 84.9609 12.7812 84.2422 12.0312C83.5234 11.276 83.1641 10.2682 83.1641 9.00781V8.74219C83.1641 7.90365 83.3229 7.15625 83.6406 6.5C83.9635 5.83854 84.4115 5.32292 84.9844 4.95312C85.5625 4.57812 86.1875 4.39062 86.8594 4.39062C87.9583 4.39062 88.8125 4.7526 89.4219 5.47656C90.0312 6.20052 90.3359 7.23698 90.3359 8.58594V9.1875H84.6094C84.6302 10.0208 84.8724 10.6953 85.3359 11.2109C85.8047 11.7214 86.3984 11.9766 87.1172 11.9766C87.6276 11.9766 88.0599 11.8724 88.4141 11.6641C88.7682 11.4557 89.0781 11.1797 89.3438 10.8359L90.2266 11.5234C89.5182 12.612 88.4557 13.1562 87.0391 13.1562ZM86.8594 5.57812C86.276 5.57812 85.7865 5.79167 85.3906 6.21875C84.9948 6.64062 84.75 7.23438 84.6562 8H88.8906V7.89062C88.849 7.15625 88.651 6.58854 88.2969 6.1875C87.9427 5.78125 87.4635 5.57812 86.8594 5.57812ZM93.3828 4.54688L93.4297 5.60938C94.0755 4.79688 94.9193 4.39062 95.9609 4.39062C97.7474 4.39062 98.6484 5.39844 98.6641 7.41406V13H97.2188V7.40625C97.2135 6.79688 97.0729 6.34635 96.7969 6.05469C96.526 5.76302 96.1016 5.61719 95.5234 5.61719C95.0547 5.61719 94.6432 5.74219 94.2891 5.99219C93.9349 6.24219 93.6589 6.57031 93.4609 6.97656V13H92.0156V4.54688H93.3828ZM102.805 2.5V4.54688H104.383V5.66406H102.805V10.9062C102.805 11.2448 102.875 11.5 103.016 11.6719C103.156 11.8385 103.396 11.9219 103.734 11.9219C103.901 11.9219 104.13 11.8906 104.422 11.8281V13C104.042 13.1042 103.672 13.1562 103.312 13.1562C102.667 13.1562 102.18 12.9609 101.852 12.5703C101.523 12.1797 101.359 11.625 101.359 10.9062V5.66406H99.8203V4.54688H101.359V2.5H102.805ZM109.586 13.1562C108.44 13.1562 107.508 12.7812 106.789 12.0312C106.07 11.276 105.711 10.2682 105.711 9.00781V8.74219C105.711 7.90365 105.87 7.15625 106.188 6.5C106.51 5.83854 106.958 5.32292 107.531 4.95312C108.109 4.57812 108.734 4.39062 109.406 4.39062C110.505 4.39062 111.359 4.7526 111.969 5.47656C112.578 6.20052 112.883 7.23698 112.883 8.58594V9.1875H107.156C107.177 10.0208 107.419 10.6953 107.883 11.2109C108.352 11.7214 108.945 11.9766 109.664 11.9766C110.174 11.9766 110.607 11.8724 110.961 11.6641C111.315 11.4557 111.625 11.1797 111.891 10.8359L112.773 11.5234C112.065 12.612 111.003 13.1562 109.586 13.1562ZM109.406 5.57812C108.823 5.57812 108.333 5.79167 107.938 6.21875C107.542 6.64062 107.297 7.23438 107.203 8H111.438V7.89062C111.396 7.15625 111.198 6.58854 110.844 6.1875C110.49 5.78125 110.01 5.57812 109.406 5.57812Z" fill="#F6DE2A"/>
</svg>
